<?xml version="1.0" encoding="utf-8"?>
<!-- Generator: Adobe Illustrator 17.0.0, SVG Export Plug-In . SVG Version: 6.00 Build 0)  -->
<!DOCTYPE svg PUBLIC "-//W3C//DTD SVG 1.1//EN" "http://www.w3.org/Graphics/SVG/1.1/DTD/svg11.dtd">
<svg version="1.1" id="svg3353" xmlns="http://www.w3.org/2000/svg" xmlns:xlink="http://www.w3.org/1999/xlink" x="0px" y="0px"
	 width="100px" height="45px" viewBox="1230 777.5 100 45" enable-background="new 1230 777.5 100 45" xml:space="preserve">
<g>
	<g>
		<path fill="#ffffff" d="M1249.542,806.234c0.588,1.315,1.066,2.521,1.656,3.669c0.708,1.378,1.675,2.576,2.834,3.616
			c2.145,1.925,4.609,2.516,7.412,1.875c3.546-0.811,6.643-2.544,9.522-4.675c1.968-1.456,3.82-3.067,5.592-4.503
			c-0.716,0.903-1.535,1.965-2.385,3.002c-2.658,3.245-5.478,6.335-8.787,8.939c-1.886,1.484-3.876,2.807-6.214,3.464
			c-2.508,0.705-4.883,0.52-6.871-1.379c-1.243-1.187-1.854-2.739-2.28-4.36c-0.646-2.46-0.8-4.976-0.738-7.506
			C1249.303,807.694,1249.445,807.014,1249.542,806.234z"/>
		<path fill="#ffffff" d="M1285.408,793.466c1.713-1.895,3.392-3.822,5.146-5.677c2.585-2.733,5.35-5.269,8.547-7.288
			c1.66-1.048,3.403-1.914,5.346-2.322c3.877-0.815,7.826,1.208,9.465,4.888c1.039,2.333,1.198,4.807,1.095,7.316
			c-0.003,0.064-0.04,0.126-0.072,0.222c-0.685-4.123-3.474-7.823-8.156-8.622c-3.019-0.515-5.863,0.092-8.543,1.592
			c-3.557,1.99-6.705,4.521-9.733,7.217c-1.015,0.904-2.007,1.835-3.01,2.754C1285.466,793.519,1285.437,793.493,1285.408,793.466z"
			/>
		<path fill="#ffffff" d="M1260.898,797.2c-0.016-0.111-0.029-0.146-0.025-0.178c0.183-1.346,0.18-1.366,1.524-1.589
			c1.197-0.199,2.405-0.311,3.612-0.057c1.44,0.303,1.953,0.997,1.87,2.451c-0.103,1.813-0.182,3.628-0.272,5.442
			c-0.006,0.117-0.024,0.233-0.039,0.377c-0.744,0-1.461,0-2.22,0c0.082-1.39,0.162-2.761,0.243-4.141
			c-0.882,0.29-1.719,0.542-2.54,0.841c-0.857,0.312-1.243,0.83-1.117,1.408c0.13,0.593,0.673,0.885,1.592,0.825
			c0.339-0.022,0.674-0.097,1.066-0.156c-0.108,0.399-0.19,0.765-0.314,1.117c-0.035,0.099-0.194,0.221-0.296,0.221
			c-0.876-0.004-1.763,0.045-2.625-0.076c-0.872-0.123-1.352-0.765-1.557-1.613c-0.203-0.837,0.027-1.539,0.642-2.12
			c0.723-0.684,1.66-0.896,2.579-1.14c0.568-0.15,1.147-0.264,1.708-0.437c0.584-0.18,0.862-0.544,0.831-0.988
			c-0.031-0.438-0.356-0.727-0.993-0.812c-1.092-0.145-2.129,0.132-3.156,0.459C1261.248,797.084,1261.086,797.138,1260.898,797.2z"
			/>
		<path fill="#ffffff" d="M1252.828,799.512c-0.26,1.595,0.673,2.746,2.26,2.829c0.495,0.026,1.002-0.039,1.494-0.118
			c0.475-0.077,0.939-0.226,1.463-0.358c-0.084,0.515-0.146,1.007-0.256,1.488c-0.024,0.105-0.206,0.219-0.334,0.247
			c-1.278,0.289-2.57,0.378-3.864,0.139c-1.884-0.348-3.003-1.616-3.063-3.625c-0.024-0.807,0.126-1.667,0.406-2.426
			c0.624-1.694,2.166-2.546,4.161-2.449c1.17,0.057,2.275,0.273,3.033,1.3c0.589,0.797,0.723,1.7,0.642,2.66
			c-0.028,0.337-0.246,0.314-0.477,0.314c-1.627-0.002-3.253-0.001-4.88-0.001C1253.226,799.512,1253.037,799.512,1252.828,799.512z
			 M1252.87,798.54c1.271,0,2.497,0,3.718,0c0.105-1.091-0.392-1.792-1.323-1.922C1254.063,796.451,1253.143,797.161,1252.87,798.54
			z"/>
		<path fill="#ffffff" d="M1284.067,799.521c-1.954,0-3.886,0-5.806,0c-0.358,1.458,0.586,2.741,2.141,2.8
			c0.813,0.031,1.637-0.189,2.455-0.305c0.168-0.024,0.331-0.089,0.594-0.163c-0.095,0.558-0.168,1.06-0.279,1.553
			c-0.02,0.087-0.196,0.172-0.314,0.197c-1.314,0.285-2.639,0.383-3.966,0.113c-1.72-0.35-2.796-1.537-2.949-3.292
			c-0.049-0.562-0.033-1.149,0.073-1.702c0.456-2.355,2.083-3.603,4.482-3.481c0.379,0.019,0.76,0.062,1.131,0.139
			C1283.495,795.769,1284.589,797.587,1284.067,799.521z M1282.004,798.543c0.099-1.172-0.49-1.892-1.544-1.944
			c-1.162-0.057-2.114,0.791-2.132,1.944C1279.544,798.543,1280.759,798.543,1282.004,798.543z"/>
		<path fill="#ffffff" d="M1274.767,802.026c0.012,0.114,0.021,0.148,0.018,0.181c-0.154,1.475-0.244,1.562-1.723,1.654
			c-0.086,0.005-0.173,0.007-0.259,0.008c-1.91,0.02-2.554-0.68-2.42-2.591c0.092-1.311,0.152-2.623,0.225-3.935
			c0.003-0.05-0.011-0.1-0.025-0.206c-0.346-0.022-0.699-0.045-1.08-0.069c0-0.497,0-0.973,0-1.505
			c0.413-0.024,0.8-0.047,1.233-0.073c0.043-0.517,0.084-1.012,0.129-1.55c0.66-0.141,1.328-0.283,2.05-0.437
			c0,0.673,0,1.316,0,2.013c0.68,0,1.312,0,1.968,0c0,0.545,0,1.033,0,1.584c-0.584,0-1.117,0.014-1.648-0.005
			c-0.315-0.011-0.422,0.11-0.433,0.417c-0.039,1.088-0.117,2.175-0.145,3.263c-0.031,1.218,0.392,1.565,1.583,1.351
			C1274.405,802.097,1274.569,802.064,1274.767,802.026z"/>
		<path fill="#ffffff" d="M1242.276,801.888c-0.084,0.511-0.157,1.036-0.268,1.554c-0.02,0.094-0.189,0.199-0.303,0.221
			c-1.077,0.207-2.163,0.312-3.247,0.083c-1.466-0.311-2.375-1.224-2.709-2.678c-0.253-1.102-0.202-2.201,0.179-3.273
			c0.479-1.348,1.396-2.2,2.828-2.447c1.106-0.191,2.203-0.119,3.299,0.101c0.29,0.058,0.411,0.183,0.413,0.481
			c0.003,0.428,0.041,0.855,0.067,1.34c-0.429-0.1-0.806-0.241-1.19-0.266c-0.58-0.037-1.179-0.07-1.743,0.037
			c-0.747,0.142-1.26,0.672-1.477,1.392c-0.146,0.487-0.223,1.019-0.206,1.528c0.051,1.512,1.064,2.38,2.572,2.231
			C1241.071,802.135,1241.643,801.998,1242.276,801.888z"/>
		<path fill="#ffffff" d="M1249.533,797.182c-0.177-0.02-0.33-0.039-0.484-0.053c-1.292-0.117-2.249,0.517-2.411,1.798
			c-0.17,1.348-0.16,2.72-0.225,4.081c-0.01,0.203-0.001,0.406-0.001,0.637c-0.768,0-1.485,0-2.24,0
			c0-0.428-0.013-0.851,0.002-1.272c0.076-2.174,0.162-4.348,0.238-6.522c0.008-0.225,0.008-0.413,0.316-0.408
			c0.602,0.01,1.204,0.003,1.844,0.003c0,0.328,0,0.612,0,1.03c0.19-0.205,0.298-0.32,0.405-0.436
			c0.596-0.654,1.35-0.879,2.204-0.761c0.132,0.018,0.326,0.232,0.337,0.368C1249.557,796.152,1249.533,796.663,1249.533,797.182z"
			/>
		<path fill="#ffffff" d="M1292.572,802.024c-0.056,1.807-0.108,3.475-0.162,5.205c-0.174,0.009-0.351,0.019-0.592,0.032
			c0-0.208-0.005-0.375,0.001-0.541c0.12-3.458,0.246-6.916,0.353-10.374c0.012-0.394,0.13-0.573,0.532-0.659
			c1.207-0.255,2.412-0.454,3.652-0.315c1.458,0.164,2.441,0.912,2.853,2.336c0.438,1.513,0.287,2.971-0.452,4.372
			c-1.273,2.412-5.141,2.221-5.988,0.183C1292.75,802.22,1292.707,802.187,1292.572,802.024z M1292.688,798.685
			c-0.011,0-0.022,0-0.033,0.001c0,0.536-0.017,1.072,0.003,1.607c0.066,1.705,1.008,2.848,2.518,3.079
			c1.536,0.234,2.816-0.595,3.367-2.208c0.361-1.056,0.425-2.137,0.109-3.215c-0.333-1.136-1.051-1.899-2.252-2.108
			c-1.158-0.201-2.271,0.038-3.354,0.433c-0.114,0.042-0.221,0.253-0.234,0.394C1292.753,797.338,1292.727,798.012,1292.688,798.685
			z"/>
		<path fill="#ffffff" d="M1307.342,803.652c-0.19,0-0.373,0-0.595,0c0.09-1.727,0.179-3.438,0.264-5.056
			c-0.965,0.321-1.893,0.613-2.809,0.939c-0.665,0.236-1.346,0.458-1.962,0.793c-0.731,0.398-1.014,1.052-0.858,1.731
			c0.172,0.746,0.698,1.194,1.425,1.236c0.917,0.052,1.841-0.038,2.816-0.068c0.049,0.223-0.035,0.473-0.459,0.475
			c-0.946,0.005-1.9,0.076-2.834-0.027c-0.849-0.094-1.388-0.694-1.547-1.541c-0.158-0.841,0.104-1.618,0.857-2.012
			c0.878-0.46,1.844-0.754,2.781-1.095c0.535-0.195,1.1-0.308,1.627-0.519c0.668-0.268,1.067-0.886,1.001-1.432
			c-0.072-0.594-0.523-1.045-1.269-1.195c-1.31-0.264-2.579-0.062-3.838,0.427c-0.109-0.406,0.006-0.618,0.416-0.709
			c1.246-0.277,2.494-0.408,3.752-0.111c1.041,0.246,1.519,0.815,1.488,1.879C1307.537,799.454,1307.431,801.541,1307.342,803.652z"
			/>
		<path fill="#ffffff" d="M1324.357,798.939c-2.111,0-4.199,0-6.338,0c-0.148,1.298-0.07,2.523,0.857,3.469
			c1.408,1.437,3.087,1.05,4.776,0.516c0.079,0.366,0.028,0.633-0.395,0.665c-0.942,0.069-1.896,0.241-2.826,0.162
			c-1.692-0.144-2.774-1.357-3.028-3.237c-0.138-1.024-0.037-2.035,0.371-3.001c0.848-2.006,3.484-2.859,5.347-1.728
			C1324.063,796.357,1324.579,797.625,1324.357,798.939z M1318.124,798.467c1.904,0,3.778,0,5.647,0
			c0.152-1.06-0.329-2.032-1.2-2.437C1321.115,795.353,1318.453,795.916,1318.124,798.467z"/>
		<path fill="#ffffff" d="M1285.274,802.947c0.641,0.125,1.26,0.269,1.887,0.358c0.302,0.043,0.624,0.014,0.929-0.036
			c0.577-0.095,1.039-0.371,1.249-0.958c0.214-0.6-0.001-1.104-0.416-1.509c-0.493-0.482-1.051-0.899-1.556-1.37
			c-0.428-0.399-0.884-0.79-1.217-1.263c-0.718-1.02-0.311-2.21,0.873-2.64c0.943-0.343,1.903-0.226,2.892-0.016
			c0.017,0.195,0.033,0.377,0.053,0.6c-0.487-0.097-0.932-0.246-1.381-0.257c-0.473-0.012-0.976,0.033-1.419,0.186
			c-0.782,0.27-1.037,1.091-0.567,1.775c0.26,0.378,0.615,0.697,0.955,1.012c0.533,0.493,1.145,0.911,1.619,1.452
			c0.348,0.397,0.661,0.916,0.755,1.424c0.188,1.017-0.575,1.938-1.733,2.04c-0.863,0.076-1.748-0.072-2.621-0.154
			C1285.112,803.549,1285.297,803.179,1285.274,802.947z"/>
		<path fill="#ffffff" d="M1315.434,803.062c0.031,0.412-0.081,0.634-0.493,0.649c-0.534,0.02-1.068,0.109-1.601,0.106
			c-2.281-0.009-3.624-1.275-3.735-3.558c-0.03-0.614,0.028-1.25,0.161-1.851c0.461-2.078,1.64-3.042,3.759-3.081
			c0.599-0.011,1.2,0.117,1.8,0.187c0.334,0.039,0.488,0.215,0.381,0.62c-0.262-0.064-0.523-0.128-0.783-0.192
			c-2.731-0.671-4.623,0.76-4.727,3.576c-0.006,0.173-0.004,0.346-0.002,0.519c0.029,2.35,1.659,3.704,3.98,3.299
			C1314.582,803.266,1314.983,803.162,1315.434,803.062z"/>
	</g>
</g>
</svg>
