<?xml version="1.0" encoding="utf-8"?>
<!-- Generator: Adobe Illustrator 17.0.0, SVG Export Plug-In . SVG Version: 6.00 Build 0)  -->
<!DOCTYPE svg PUBLIC "-//W3C//DTD SVG 1.1//EN" "http://www.w3.org/Graphics/SVG/1.1/DTD/svg11.dtd">
<svg version="1.1" id="svg3353" xmlns="http://www.w3.org/2000/svg" xmlns:xlink="http://www.w3.org/1999/xlink" x="0px" y="0px"
	 width="100px" height="45px" viewBox="1230 1009.457 100 45" enable-background="new 1230 1009.457 100 45" xml:space="preserve">
<g>
	<g>
		<path fill="#ffffff" d="M1241.671,1018.511c0.258,0.084,0.53,0.058,0.794,0.093c1.288,0.167,2.532,0.469,3.636,1.193
			c1.244,0.817,1.945,2.005,2.316,3.415c0.097,0.369,0.158,0.745,0.221,1.121c0.024,0.144-0.027,0.159-0.142,0.165
			c-0.445,0.026-0.889,0.061-1.334,0.088c-1.279,0.079-2.557,0.157-3.836,0.235c-0.024,0.001-0.048,0.002-0.072,0.003
			c-0.354,0.016-0.354,0.016-0.431-0.324c-0.165-0.737-0.466-1.395-1.131-1.812c-0.654-0.41-1.385-0.489-2.138-0.422
			c-0.417,0.037-0.815,0.132-1.156,0.396c-0.888,0.687-0.761,1.802,0.262,2.256c0.724,0.322,1.504,0.446,2.268,0.627
			c1.631,0.387,3.262,0.781,4.789,1.491c1.445,0.672,2.606,1.647,3.2,3.184c0.267,0.691,0.37,1.409,0.401,2.145
			c0.009,0.226-0.065,0.313-0.287,0.364c-1.26,0.29-2.518,0.593-3.774,0.902c-0.647,0.159-1.289,0.339-1.934,0.509
			c-0.053,0.014-0.106,0.035-0.165,0.002c0.061-0.178,0.142-0.352,0.181-0.534c0.165-0.779-0.229-1.575-0.986-1.997
			c-0.772-0.431-1.62-0.647-2.471-0.845c-1.676-0.39-3.331-0.837-4.841-1.693c-1.316-0.746-2.317-1.771-2.697-3.28
			c-0.646-2.563,0.501-5.026,2.896-6.284c0.898-0.472,1.86-0.724,2.86-0.852c0.408-0.052,0.817-0.096,1.225-0.144
			C1240.108,1018.511,1240.89,1018.511,1241.671,1018.511z"/>
		<path fill="#ffffff" d="M1329,1024.54c-0.184,0.277-0.255,0.601-0.367,0.906c-1.67,4.568-3.333,9.139-4.998,13.709
			c-0.103,0.282-0.101,0.284-0.378,0.153c-1.917-0.904-3.86-1.745-5.832-2.521c-0.118-0.046-0.195-0.108-0.245-0.231
			c-1.642-4-3.287-8-4.936-11.997c-0.071-0.171-0.033-0.196,0.135-0.195c1.794,0.005,3.588,0.004,5.382,0
			c0.139,0,0.203,0.029,0.248,0.178c0.933,3.094,1.873,6.185,2.813,9.276c0.014,0.045,0.031,0.089,0.068,0.19
			c0.162-0.572,0.31-1.09,0.457-1.609c0.74-2.62,1.481-5.239,2.214-7.86c0.048-0.171,0.139-0.175,0.276-0.174
			c1.635,0.003,3.269,0.002,4.904,0.001c0.087,0,0.173-0.012,0.26-0.018C1329,1024.412,1329,1024.476,1329,1024.54z"/>
		<path fill="#ffffff" d="M1315.745,1045.403c-0.248-0.084-0.51-0.062-0.765-0.094c-0.544-0.069-1.089-0.131-1.635-0.191
			c-0.087-0.01-0.125-0.04-0.134-0.129c-0.078-0.744-0.161-1.487-0.241-2.23c-0.05-0.459-0.092-0.918-0.153-1.375
			c-0.021-0.159,0.023-0.174,0.157-0.134c0.814,0.247,1.647,0.329,2.496,0.334c1.071,0.006,1.805-0.477,2.276-1.429
			c0.199-0.401,0.261-0.753,0.045-1.177c-0.267-0.526-0.461-1.089-0.705-1.681c0.459,0.183,0.878,0.344,1.292,0.516
			c1.619,0.669,3.224,1.371,4.809,2.116c0.147,0.069,0.196,0.119,0.13,0.296c-0.377,1.021-0.78,2.027-1.346,2.965
			c-0.682,1.13-1.709,1.739-2.962,2.021c-0.351,0.079-0.709,0.13-1.063,0.194
			C1317.212,1045.403,1316.479,1045.403,1315.745,1045.403z"/>
		<path fill="#ffffff" d="M1231,1032.435c0.72-0.08,1.444-0.102,2.166-0.148c1.12-0.071,2.239-0.144,3.357-0.23
			c0.213-0.016,0.286,0.039,0.318,0.251c0.111,0.738,0.315,1.443,0.804,2.035c0.399,0.483,0.906,0.792,1.551,0.991
			c-0.352,0.112-0.656,0.211-0.962,0.306c-1.661,0.517-3.311,1.064-4.941,1.67c-0.151,0.056-0.233,0.026-0.341-0.094
			c-0.983-1.097-1.562-2.386-1.843-3.82c-0.041-0.208-0.031-0.425-0.11-0.627C1231,1032.659,1231,1032.547,1231,1032.435z"/>
		<path fill="#ffffff" d="M1302.894,1032.299c-0.626-0.137-1.253-0.276-1.882-0.411c-1.111-0.239-2.225-0.461-3.345-0.655
			c-0.14-0.024-0.262-0.026-0.243-0.247c0.177-2.082,1.012-3.826,2.627-5.173c1.033-0.862,2.233-1.37,3.548-1.59
			c1.742-0.292,3.484-0.262,5.176,0.277c2.772,0.884,4.414,2.795,4.912,5.655c0.289,1.657,0.127,3.281-0.56,4.838
			c-0.086,0.196-0.163,0.206-0.348,0.142c-1.507-0.524-3.031-0.997-4.563-1.44c-0.15-0.043-0.176-0.077-0.138-0.238
			c0.309-1.284,0.352-2.569-0.087-3.833c-0.362-1.042-1.409-1.939-2.79-1.69c-1.055,0.191-1.691,0.858-2.036,1.832
			c-0.261,0.739-0.295,1.51-0.26,2.286c0.003,0.064,0.008,0.127,0.009,0.191C1302.915,1032.257,1302.904,1032.272,1302.894,1032.299
			z"/>
		<path fill="#ffffff" d="M1259.568,1037.217c-0.559,0.676-1.116,1.264-1.793,1.728c-0.767,0.525-1.621,0.783-2.541,0.87
			c-0.881,0.083-1.753,0.06-2.595-0.222c-1.578-0.529-2.46-1.677-2.832-3.262c-0.233-0.995-0.206-2.006-0.206-3.017
			c0-0.13,0.064-0.148,0.171-0.172c1.394-0.311,2.794-0.589,4.198-0.851c0.312-0.058,0.625-0.111,0.934-0.179
			c0.172-0.038,0.218,0.012,0.218,0.186c-0.002,0.564-0.029,1.129,0.084,1.69c0.133,0.663,0.445,1.186,1.113,1.397
			c0.728,0.23,1.414,0.123,2.009-0.391c0.55-0.476,0.709-1.128,0.81-1.806c0.077-0.515,0.065-1.033,0.057-1.55
			c-0.003-0.176,0.06-0.233,0.226-0.254c1.197-0.151,2.393-0.312,3.589-0.464c0.481-0.061,0.964-0.103,1.445-0.161
			c0.182-0.021,0.244,0.028,0.243,0.226c-0.007,2.767-0.007,5.534,0,8.302c0,0.191-0.053,0.237-0.239,0.236
			c-1.547-0.007-3.094-0.008-4.641,0c-0.193,0.001-0.259-0.038-0.254-0.245C1259.578,1038.61,1259.568,1037.942,1259.568,1037.217z"
			/>
		<path fill="#ffffff" d="M1291.055,1031.821c0-0.312,0.014-0.544-0.005-0.774c-0.015-0.186,0.062-0.209,0.217-0.188
			c0.867,0.116,1.736,0.217,2.601,0.344c0.991,0.145,1.977,0.319,2.968,0.464c0.238,0.035,0.322,0.107,0.305,0.364
			c-0.083,1.24-0.171,2.482-0.6,3.658c-0.619,1.697-1.859,2.816-3.476,3.54c-0.955,0.427-1.971,0.591-3.013,0.628
			c-1.214,0.043-2.418-0.013-3.607-0.276c-2.374-0.526-3.905-1.979-4.669-4.267c-0.266-0.796-0.386-1.62-0.473-2.452
			c-0.016-0.155,0.081-0.148,0.17-0.161c0.622-0.089,1.243-0.177,1.865-0.264c1.205-0.167,2.411-0.326,3.614-0.504
			c0.17-0.025,0.178,0.019,0.181,0.158c0.012,0.565,0.025,1.135,0.193,1.679c0.214,0.693,0.573,1.277,1.369,1.391
			c1.371,0.195,1.989-0.536,2.214-1.616C1291.032,1032.951,1291.073,1032.348,1291.055,1031.821z"/>
		<path fill="#ffffff" d="M1297.175,1025.378c-0.017,1.587,0.025,3.556-0.016,5.525c-0.004,0.184-0.034,0.237-0.237,0.2
			c-1.432-0.258-2.871-0.465-4.312-0.663c-0.441-0.061-0.884-0.115-1.327-0.155c-0.164-0.015-0.231-0.049-0.231-0.235
			c0.006-3.667,0.006-7.334,0-11.001c0-0.174,0.053-0.206,0.214-0.205c1.897,0.006,3.795,0.006,5.692-0.001
			c0.181-0.001,0.222,0.045,0.221,0.223C1297.172,1021.043,1297.175,1023.02,1297.175,1025.378z"/>
		<path fill="#ffffff" d="M1270.768,1026.719c0.503-0.618,0.998-1.145,1.579-1.586c0.801-0.607,1.705-0.936,2.702-1.032
			c0.895-0.086,1.782-0.074,2.644,0.207c1.555,0.508,2.445,1.62,2.829,3.176c0.143,0.581,0.193,1.174,0.236,1.769
			c0.015,0.202-0.028,0.275-0.253,0.269c-1.354-0.038-2.709-0.065-4.063-0.041c-0.406,0.007-0.812,0.021-1.218,0.033
			c-0.096,0.003-0.189,0.011-0.235-0.107c-0.387-1.001-1.749-1.195-2.599-0.733c-0.344,0.187-0.619,0.451-0.799,0.798
			c-0.076,0.146-0.17,0.179-0.319,0.187c-1.136,0.061-2.273,0.123-3.408,0.201c-0.666,0.046-1.33,0.116-1.993,0.185
			c-0.186,0.019-0.225-0.045-0.225-0.221c0.006-1.746,0.006-3.492,0-5.238c-0.001-0.178,0.049-0.232,0.229-0.231
			c1.563,0.006,3.125,0.006,4.688,0c0.175-0.001,0.21,0.061,0.209,0.22C1270.764,1025.267,1270.768,1025.958,1270.768,1026.719z"/>
		<path fill="#ffffff" d="M1297.427,1031.776c1.791,0.321,3.556,0.672,5.31,1.082c0.131,0.031,0.179,0.065,0.195,0.206
			c0.06,0.529,0.151,1.054,0.399,1.535c0.497,0.964,1.28,1.497,2.374,1.457c1.084-0.04,1.827-0.62,2.239-1.615
			c0.075-0.182,0.141-0.202,0.324-0.149c1.538,0.445,3.062,0.935,4.581,1.441c0.194,0.065,0.147,0.137,0.078,0.261
			c-1.084,1.956-2.744,3.142-4.911,3.606c-1.792,0.384-3.598,0.394-5.359-0.145c-2.694-0.825-4.407-2.621-5.071-5.377
			C1297.406,1033.333,1297.379,1032.568,1297.427,1031.776z"/>
		<path fill="#ffffff" d="M1240.564,1039.89c-1.495-0.036-2.985-0.114-4.428-0.563c-0.899-0.28-1.728-0.682-2.423-1.333
			c-0.142-0.133-0.169-0.191,0.052-0.271c1.881-0.681,3.778-1.311,5.691-1.894c0.117-0.036,0.224-0.034,0.347-0.012
			c0.885,0.155,1.755,0.155,2.567-0.308c0.24-0.137,0.443-0.32,0.6-0.539c0.113-0.157,0.248-0.233,0.421-0.278
			c1.862-0.493,3.732-0.956,5.609-1.387c0.285-0.065,0.295-0.064,0.277,0.212c-0.093,1.394-0.604,2.624-1.494,3.693
			c-1.119,1.344-2.601,2.055-4.282,2.403c-0.725,0.15-1.458,0.229-2.2,0.248C1241.057,1039.867,1240.81,1039.889,1240.564,1039.89z"
			/>
		<path fill="#ffffff" d="M1280.759,1034.803c0,1.491-0.004,2.981,0.005,4.472c0.001,0.203-0.06,0.248-0.253,0.247
			c-1.674-0.007-3.348-0.007-5.021,0c-0.188,0.001-0.238-0.049-0.238-0.237c0.006-2.495,0.004-4.99,0.004-7.485
			c0-0.525-0.024-1.048-0.183-1.554c-0.047-0.149,0.022-0.159,0.137-0.159c0.327,0.001,0.654-0.005,0.98-0.005
			c1.419,0.003,2.837,0.006,4.256,0.012c0.314,0.001,0.314,0.005,0.314,0.309C1280.759,1031.87,1280.759,1033.337,1280.759,1034.803
			z"/>
		<path fill="#ffffff" d="M1265.649,1035.093c0-1.403,0.004-2.806-0.004-4.209c-0.001-0.198,0.063-0.256,0.255-0.271
			c0.919-0.068,1.836-0.157,2.755-0.228c0.563-0.044,1.127-0.071,1.691-0.103c0.333-0.019,0.667-0.033,1-0.052
			c0.121-0.007,0.152,0.021,0.106,0.149c-0.244,0.674-0.304,1.376-0.304,2.087c0,2.256-0.003,4.512,0.005,6.767
			c0.001,0.221-0.039,0.294-0.28,0.292c-1.642-0.012-3.284-0.011-4.926-0.001c-0.23,0.001-0.308-0.039-0.305-0.293
			C1265.657,1037.851,1265.649,1036.472,1265.649,1035.093z"/>
		<path fill="#ffffff" d="M1249.605,1028.456c0-1.283,0.004-2.567-0.005-3.85c-0.001-0.2,0.055-0.252,0.253-0.252
			c1.674,0.008,3.348,0.007,5.022,0.001c0.179-0.001,0.246,0.033,0.246,0.233c-0.008,2.232-0.007,4.464-0.001,6.696
			c0,0.169-0.044,0.224-0.217,0.255c-1.718,0.306-3.429,0.644-5.132,1.02c-0.205,0.045-0.165-0.075-0.165-0.181
			C1249.605,1031.071,1249.605,1029.764,1249.605,1028.456z"/>
		<path fill="#ffffff" d="M1259.202,1027.585c0-0.996,0.005-1.993-0.004-2.989c-0.002-0.191,0.055-0.242,0.244-0.241
			c1.674,0.007,3.347,0.008,5.021-0.001c0.198-0.001,0.234,0.066,0.233,0.245c-0.006,1.777-0.006,3.555,0,5.332
			c0.001,0.181-0.045,0.242-0.233,0.258c-0.917,0.079-1.831,0.19-2.743,0.315c-0.77,0.106-1.542,0.198-2.312,0.307
			c-0.175,0.025-0.212-0.023-0.21-0.191C1259.205,1029.609,1259.202,1028.597,1259.202,1027.585z"/>
	</g>
</g>
</svg>
