<?xml version="1.0" encoding="utf-8"?>
<!-- Generator: Adobe Illustrator 17.0.0, SVG Export Plug-In . SVG Version: 6.00 Build 0)  -->
<!DOCTYPE svg PUBLIC "-//W3C//DTD SVG 1.1//EN" "http://www.w3.org/Graphics/SVG/1.1/DTD/svg11.dtd">
<svg version="1.1" id="svg3353" xmlns="http://www.w3.org/2000/svg" xmlns:xlink="http://www.w3.org/1999/xlink" x="0px" y="0px"
	 width="100px" height="45px" viewBox="1367.5 1009.457 100 45" enable-background="new 1367.5 1009.457 100 45"
	 xml:space="preserve">
<g>
	<g>
		<path fill="#ffffff" d="M1399.294,1023.403c0.122-0.052,0.235-0.103,0.35-0.149c4.67-1.887,9.334-3.786,14.011-5.654
			c1.966-0.785,4.052-1.102,6.132-1.406c2.137-0.313,4.289-0.488,6.45-0.463c2.476,0.028,4.954,0.13,7.295,1.058
			c1.569,0.622,3.13,1.276,4.656,1.996c4.148,1.957,8.139,4.213,12.128,6.471c3.046,1.724,6.082,3.467,9.143,5.166
			c1.946,1.081,4.295,1.731,6.346,1.856c-1.299,0.266-1.7,0.343-3.103-0.214c-1.8-0.714-3.576-1.497-5.323-2.335
			c-4.444-2.131-8.829-4.386-13.378-6.292c-3.481-1.458-7.018-2.75-10.708-3.586c-2.529-0.573-5.088-0.858-7.68-0.788
			c-5.128,0.138-9.976,1.426-14.584,3.647c-0.975,0.47-1.91,1.021-2.868,1.527c-0.105,0.056-0.247,0.096-0.36,0.076
			c-2.802-0.497-5.628-0.745-8.469-0.862C1399.329,1023.452,1399.323,1023.439,1399.294,1023.403z"/>
		<path fill="#ffffff" d="M1390.249,1045.264c1.153,0.805,2.377,1.459,3.763,1.763c1.386,0.304,2.756,0.206,4.13-0.225
			c0.061,0.14,0.115,0.265,0.199,0.46c-0.673,0.179-1.31,0.381-1.962,0.516c-2.813,0.58-5.623,0.555-8.407-0.168
			c-0.536-0.139-0.985-0.12-1.517,0.047c-6.183,1.94-11.687-1.906-12.634-7.555c-0.369-2.201-0.314-4.385,0.6-6.448
			c1.47-3.314,4.008-5.322,7.615-5.89c5.899-0.928,10.372,3.587,10.974,8.284c0.386,3.012-0.09,5.834-1.993,8.303
			C1390.781,1044.659,1390.517,1044.947,1390.249,1045.264z M1389.778,1037.799c-0.019-0.378-0.033-0.779-0.062-1.178
			c-0.113-1.555-0.388-3.073-1.055-4.499c-1.48-3.167-5.28-4.411-8.229-2.685c-1.359,0.795-2.158,2.042-2.693,3.476
			c-0.651,1.746-0.782,3.569-0.738,5.411c0.043,1.835,0.311,3.628,1.115,5.303c1.371,2.856,3.674,3.976,6.62,3.335
			c2.166-0.471,3.546-1.915,4.314-3.952C1389.679,1041.339,1389.776,1039.585,1389.778,1037.799z"/>
		<path fill="#ffffff" d="M1447.075,1047.616c-0.724,0-1.416,0.008-2.107-0.01c-0.086-0.002-0.206-0.13-0.246-0.226
			c-0.738-1.78-1.471-3.563-2.189-5.351c-0.103-0.257-0.221-0.359-0.511-0.358c-2.69,0.013-5.38,0.011-8.07,0.001
			c-0.256-0.001-0.378,0.071-0.475,0.313c-0.713,1.779-1.448,3.549-2.16,5.328c-0.098,0.245-0.221,0.318-0.476,0.31
			c-0.628-0.019-1.256-0.006-1.93-0.006c0.278-0.666,0.541-1.303,0.808-1.938c2.425-5.769,4.854-11.537,7.271-17.31
			c0.119-0.283,0.262-0.396,0.569-0.372c0.367,0.028,0.738,0.022,1.106,0.001c0.237-0.013,0.336,0.082,0.423,0.293
			c1.854,4.494,3.716,8.985,5.576,13.476c0.762,1.84,1.524,3.681,2.286,5.522
			C1446.991,1047.386,1447.026,1047.486,1447.075,1047.616z M1434.347,1039.923c2.452,0,4.861,0,7.309,0
			c-1.229-3.019-2.445-6.006-3.672-9.021C1436.767,1033.922,1435.562,1036.91,1434.347,1039.923z"/>
		<path fill="#ffffff" d="M1410.7,1026.151c-0.567-0.076-1.131-0.18-1.7-0.222c-1.642-0.124-3.285-0.274-4.93-0.319
			c-2.189-0.06-4.382-0.086-6.57-0.024c-2.675,0.076-5.348,0.236-8.02,0.406c-1.762,0.112-3.524,0.269-5.278,0.473
			c-2.851,0.333-5.578,1.077-7.962,2.758c-2.803,1.976-4.266,4.717-4.508,8.121c-0.039,0.555-0.005,1.114-0.052,1.685
			c-0.202-0.508-0.403-1.017-0.605-1.526c-0.833-2.092-1.661-4.187-2.505-6.275c-0.118-0.291-0.097-0.463,0.151-0.684
			c1.508-1.344,3.235-2.322,5.086-3.097c2.481-1.04,5.073-1.687,7.715-2.146c3.639-0.632,7.31-0.902,10.999-0.997
			c2.994-0.077,5.984-0.048,8.971,0.154c2.705,0.182,5.399,0.465,8.029,1.168c0.354,0.095,0.697,0.234,1.043,0.358
			c0.056,0.02,0.103,0.064,0.154,0.097C1410.712,1026.105,1410.706,1026.128,1410.7,1026.151z"/>
		<path fill="#ffffff" d="M1404.249,1036.851c-0.256-0.219-0.485-0.414-0.777-0.663c0.392-0.234,0.731-0.484,1.107-0.652
			c1.181-0.527,2.417-0.664,3.686-0.408c1.18,0.238,1.951,1.064,2.015,2.271c0.069,1.308,0.043,2.622,0.055,3.933
			c0.005,0.518,0.001,1.037,0.001,1.576c-0.403,0-0.777,0-1.188,0c0-0.241,0-0.485,0-0.802c-0.145,0.09-0.231,0.146-0.32,0.197
			c-1.24,0.712-2.549,1.033-3.96,0.625c-0.829-0.24-1.456-0.734-1.666-1.615c-0.24-1.005,0.281-1.993,1.268-2.449
			c0.852-0.393,1.759-0.529,2.687-0.544c0.646-0.011,1.293-0.002,1.943-0.002c0.128-1.787-0.845-2.547-2.428-2.396
			C1405.787,1036.006,1404.991,1036.322,1404.249,1036.851z M1409.12,1039.2c-0.768,0-1.511-0.02-2.252,0.006
			c-0.619,0.022-1.222,0.151-1.772,0.464c-0.507,0.289-0.789,0.705-0.724,1.303c0.063,0.588,0.44,0.921,0.968,1.104
			c1.152,0.398,2.806-0.039,3.613-0.956c0.075-0.085,0.157-0.2,0.161-0.304C1409.129,1040.312,1409.12,1039.804,1409.12,1039.2z"/>
		<path fill="#ffffff" d="M1421.949,1035.192c0.414,0,0.783-0.018,1.148,0.011c0.099,0.008,0.226,0.139,0.274,0.244
			c0.85,1.839,1.689,3.682,2.531,5.524c0.067,0.146,0.136,0.292,0.229,0.494c0.267-0.545,0.513-1.042,0.755-1.541
			c0.73-1.5,1.461-2.999,2.184-4.502c0.08-0.167,0.167-0.246,0.363-0.235c0.324,0.018,0.65,0.005,1.025,0.005
			c-0.173,0.358-0.329,0.687-0.491,1.013c-1.373,2.765-2.743,5.532-4.123,8.294c-0.44,0.88-1.024,1.612-2.056,1.843
			c-0.518,0.116-1.196,0.078-1.658-0.119c0.115-0.285,0.231-0.57,0.347-0.855c0.226,0.029,0.436,0.082,0.647,0.079
			c0.596-0.007,1.04-0.322,1.333-0.806c0.353-0.583,0.655-1.197,0.958-1.808c0.045-0.09,0.003-0.251-0.046-0.357
			c-1.066-2.275-2.139-4.547-3.209-6.82C1422.096,1035.52,1422.035,1035.382,1421.949,1035.192z"/>
		<path fill="#ffffff" d="M1394.412,1035.209c0.374,0,0.74,0,1.156,0c0,0.111,0,0.225,0,0.339c0,1.356-0.029,2.713,0.015,4.067
			c0.016,0.518,0.159,1.043,0.315,1.543c0.135,0.432,0.491,0.703,0.917,0.864c1.337,0.506,2.954-0.019,3.728-1.225
			c0.069-0.108,0.085-0.265,0.086-0.399c0.006-1.594,0.004-3.189,0.004-4.783c0-0.128,0-0.256,0-0.403c0.396,0,0.761,0,1.15,0
			c0,2.553,0,5.108,0,7.689c-0.365,0-0.735,0-1.153,0c0-0.308,0-0.615,0-0.984c-0.201,0.161-0.34,0.277-0.484,0.386
			c-1.39,1.051-2.885,1.04-4.382,0.325c-0.937-0.448-1.314-1.353-1.347-2.339c-0.055-1.647-0.026-3.296-0.03-4.945
			C1394.384,1035.304,1394.4,1035.264,1394.412,1035.209z"/>
		<path fill="#ffffff" d="M1466.497,1038.713c0.053,3.032-2.364,4.249-4.531,3.985c-1.46-0.177-2.552-0.857-3.123-2.254
			c-0.63-1.542-0.27-3.577,0.85-4.6c1.117-1.02,2.471-1.174,3.9-0.936c1.111,0.185,1.936,0.79,2.461,1.782
			C1466.396,1037.336,1466.521,1038.038,1466.497,1038.713z M1459.622,1038.809c-0.016,0.62,0.1,1.21,0.427,1.744
			c0.674,1.102,2.12,1.575,3.506,1.167c0.721-0.213,1.233-0.66,1.551-1.334c0.295-0.625,0.361-1.29,0.324-1.969
			c-0.094-1.716-1.066-2.681-2.767-2.723c-1.146-0.029-2.086,0.368-2.655,1.421
			C1459.725,1037.64,1459.609,1038.212,1459.622,1038.809z"/>
		<path fill="#ffffff" d="M1452.324,1042.536c-0.336,0-0.648,0-0.993,0c0-0.291,0-0.579,0-0.96c-0.145,0.125-0.231,0.192-0.31,0.267
			c-1.062,0.999-2.289,1.101-3.597,0.624c-0.919-0.336-1.331-1.097-1.512-2.005c-0.055-0.275-0.082-0.559-0.083-0.839
			c-0.008-1.527-0.004-3.055-0.004-4.604c0.348,0,0.678,0,1.048,0c0,0.119,0,0.234,0,0.35c0,1.334-0.023,2.668,0.012,4.001
			c0.012,0.478,0.123,0.965,0.261,1.426c0.157,0.525,0.563,0.837,1.095,0.965c1.29,0.311,2.27-0.201,3.006-1.281
			c0.06-0.088,0.062-0.225,0.062-0.34c0.004-1.583,0.003-3.167,0.003-4.75c0-0.117,0-0.235,0-0.373c0.344,0,0.664,0,1.012,0
			C1452.324,1037.509,1452.324,1040.005,1452.324,1042.536z"/>
		<path fill="#ffffff" d="M1417.689,1036.091c-0.559,0-1.067,0-1.601,0c0-0.297,0-0.573,0-0.883c0.509,0,1.025,0,1.584,0
			c0-0.73,0-1.427,0-2.149c0.417,0,0.79,0,1.199,0c0,0.7,0,1.398,0,2.123c0.812,0,1.589,0,2.39,0c0,0.31,0,0.594,0,0.905
			c-0.785,0-1.562,0-2.384,0c0,0.14,0,0.255,0,0.37c0,1.464,0.023,2.929-0.007,4.393c-0.025,1.182,0.631,1.502,1.698,1.239
			c0.124-0.031,0.243-0.085,0.404-0.143c0.115,0.256,0.227,0.508,0.354,0.792c-0.609,0.3-1.232,0.381-1.873,0.295
			c-1.153-0.155-1.708-0.728-1.739-1.89c-0.04-1.528-0.019-3.058-0.023-4.588
			C1417.689,1036.415,1417.689,1036.276,1417.689,1036.091z"/>
		<path fill="#ffffff" d="M1454.689,1035.87c-0.481,0-0.932,0-1.407,0c0-0.302,0-0.567,0-0.862c0.451,0,0.902,0,1.391,0
			c0-0.706,0-1.384,0-2.091c0.363,0,0.69,0,1.05,0c0,0.682,0,1.36,0,2.071c0.72,0,1.409,0,2.12,0c0,0.297,0,0.561,0,0.867
			c-0.703,0-1.392,0-2.097,0c0,1.732-0.031,3.422,0.015,5.11c0.018,0.669,0.527,0.969,1.199,0.837
			c0.2-0.039,0.391-0.117,0.619-0.187c0.054,0.127,0.11,0.251,0.161,0.378c0.048,0.12,0.092,0.241,0.149,0.394
			c-0.824,0.367-1.643,0.456-2.437-0.001c-0.573-0.329-0.744-0.92-0.751-1.538c-0.018-1.519-0.01-3.038-0.012-4.557
			C1454.689,1036.164,1454.689,1036.036,1454.689,1035.87z"/>
		<path fill="#ffffff" d="M1411.756,1031.673c0.401,0,0.774,0,1.165,0c0,3.751,0,7.478,0,11.23c-0.385,0-0.767,0-1.165,0
			C1411.756,1039.165,1411.756,1035.438,1411.756,1031.673z"/>
		<path fill="#ffffff" d="M1414.216,1042.911c0-2.58,0-5.133,0-7.703c0.379,0,0.742,0,1.13,0c0,2.565,0,5.125,0,7.703
			C1414.972,1042.911,1414.608,1042.911,1414.216,1042.911z"/>
		<path fill="#ffffff" d="M1414.773,1033.605c-0.499,0-0.852-0.284-0.856-0.688c-0.004-0.403,0.351-0.701,0.842-0.706
			c0.504-0.005,0.877,0.298,0.871,0.709C1415.624,1033.326,1415.275,1033.605,1414.773,1033.605z"/>
	</g>
</g>
</svg>
