<?xml version="1.0" encoding="utf-8"?>
<!-- Generator: Adobe Illustrator 23.0.3, SVG Export Plug-In . SVG Version: 6.00 Build 0)  -->
<svg version="1.1" id="svg3353" xmlns="http://www.w3.org/2000/svg" xmlns:xlink="http://www.w3.org/1999/xlink" x="0px" y="0px"
	 viewBox="0 0 100 45" style="enable-background:new 0 0 100 45;" xml:space="preserve">
<style type="text/css">
	.st0{fill:#FFFFFF;}
</style>
<g>
	<path class="st0" d="M53.1,0.4c1.1,0.1,2.2,0,3.3,0.2c1.1,0.2,2.2,0.5,3.3,0.8c2.3,0.7,4.5,1.7,6.4,3.2c1.7,1.4,3.1,3.1,4.2,5.1
		c1.4,2.4,2.3,5,2.9,7.7c0.2,0.8,0.2,1.6,0.3,2.4c0,1,0.1,2.1,0,3.1c-0.1,2.9-0.5,5.7-1.5,8.5c-0.7,1.9-1.8,3.6-3.2,5.1
		c-1.4,1.5-2.9,3-4.5,4.3c-1.1,0.9-2.3,1.7-3.5,2.3c-0.6,0.3-1.2,0.5-1.9,0.5c-0.1,0-0.3,0-0.3-0.1c0-0.1,0-0.3,0.1-0.4
		c0.2-0.2,0.5-0.4,0.7-0.6c1.1-0.8,2.3-1.5,3.4-2.4c3.1-2.4,5.3-5.4,6.6-9.1c0.5-1.4,0.8-2.7,1-4.2c0.1-0.9,0.2-1.8,0.2-2.6
		c0-1.1,0.1-2.3,0-3.4c-0.2-3.7-1.2-7.1-3.2-10.2c-0.9-1.3-2-2.4-3.3-3.3c-1.9-1.4-3.9-2.6-6.2-3.4c-1.3-0.5-2.6-0.7-3.9-0.8
		c-0.2,0-0.4,0-0.6,0.1c-0.3,0.1-0.3,0.3-0.2,0.5C53.3,3.8,53.6,4,53.8,4c0.7,0.1,1.4,0.2,2.1,0.3c0.9,0.1,1.8,0.4,2.6,0.8
		c2.6,1.2,4.8,2.7,6.7,4.8c1.4,1.6,2.4,3.5,3,5.7c0.3,1.4,0.6,2.8,0.7,4.2c0.1,1.2,0.1,2.5,0.2,3.7c0.1,2.8-0.6,5.5-1.8,8
		c-1.5,3-3.5,5.7-6.1,7.9c-1.4,1.1-2.9,2-4.5,2.7c-2.2,1-4.6,1.7-7,2.1c-1.4,0.2-2.8,0.4-4.2,0.3c-3.2-0.1-6.2-0.8-9-2.2
		c-1.2-0.6-2.3-1.5-3.3-2.4c-1.2-1.1-2.2-2.2-2.9-3.6c-0.3-0.7-0.7-1.3-0.7-2.1c0-0.2,0-0.5,0.1-0.7c0.1-0.3,0.3-0.3,0.6-0.1
		c0.3,0.2,0.5,0.5,0.7,0.8c0.7,0.9,1.4,1.7,2.1,2.6c1.3,1.5,2.8,2.8,4.6,3.8c1.7,0.9,3.4,1.5,5.3,1.9c0.8,0.2,1.5,0.4,2.3,0.3
		c0.2,0,0.4,0,0.6-0.1c0.2,0,0.3-0.1,0.3-0.3c0-0.2-0.2-0.3-0.4-0.3C45.4,42,45.2,42,45,42c-2.7-0.4-5.1-1.4-7.4-2.9
		c-1.8-1.2-3.4-2.7-4.8-4.4c-0.5-0.6-0.8-1.3-1.2-2c-0.5-1-1-2.1-1.2-3.2c-0.1-0.7-0.2-1.4-0.2-2.1c-0.1-1.8-0.1-3.7-0.1-5.5
		c0-3.4,1.1-6.5,3-9.2c1.3-1.8,2.8-3.3,4.6-4.5c1.2-0.8,2.4-1.3,3.7-1.9c0.7-0.3,1.3-0.6,2-0.9c0.1-0.1,0.2-0.2,0.3-0.3
		c-0.1,0-0.3-0.1-0.4-0.1c-1.2,0.2-2.3,0.6-3.4,1.1c-2.3,1.1-4.4,2.5-6.1,4.3c-2.1,2.3-3.5,5-4.3,8c-0.4,1.7-0.7,3.5-0.7,5.3
		c0,0.3,0,0.6-0.1,0.8c-0.1,0.5-0.4,0.5-0.8,0.2c-0.4-0.3-0.5-0.8-0.6-1.3c-0.2-1.7-0.2-3.4,0-5c0.2-1.7,0.7-3.2,1.5-4.8
		c1.5-3.2,3.8-5.8,6.7-7.8c1.6-1.1,3.3-2,5-2.7c1.5-0.6,3-1.1,4.5-1.5c1.6-0.3,3.2-0.7,4.9-0.9C51,0.4,52.1,0.5,53.1,0.4z
		 M59.9,16.7c0.9,0,1.9,0,3,0c0.3,0,0.5-0.1,0.7-0.3c0.3-0.3,0.3-0.7,0-1c-0.2-0.1-0.3-0.3-0.5-0.4c-1-0.5-2-1-3-1.4
		c-1.3-0.5-2.6-0.9-4-1.4c-0.1,0-0.2-0.1-0.2-0.2c-0.1-0.5-0.3-0.9-0.4-1.4c-0.1-0.4-0.2-0.8-0.3-1.2c-0.1-0.3-0.3-0.4-0.6-0.4
		c-0.3,0-0.6,0-0.8,0.1c-2.4,0.5-4.8,1-7.2,1.5c-0.4,0.1-0.7,0.3-0.9,0.6c-0.5,0.8-1,1.5-1.6,2.3c-0.2,0.3-0.5,0.6-0.9,0.7
		c-1.7,0.7-3.4,1.5-5.1,2.5c-0.8,0.4-1.5,1-2.2,1.4c-0.1,0.1-0.2,0.3-0.3,0.4c0,0,0,0.2,0,0.2c0.2,0.1,0.3,0.3,0.6,0.3
		c0.2,0,0.4,0,0.6-0.1c2-0.3,4-0.6,6-0.9c1.4-0.2,2.7-0.4,4.1-0.5c1.4-0.2,2.7-0.3,4.1-0.5c1.5-0.1,3-0.2,4.5-0.3
		C56.9,16.8,58.3,16.8,59.9,16.7z M44.3,31.3C44.3,31.3,44.3,31.3,44.3,31.3c0-0.3,0.1-0.5,0.2-0.7c0.3-0.8,0.6-1.7,0.7-2.6
		c0-0.1,0-0.3-0.1-0.4c-0.1-0.1-0.3,0-0.4,0.1c-0.2,0.1-0.4,0.3-0.5,0.5c-0.7,1-1.3,2.1-1.7,3.2c0,0.1-0.1,0.2-0.2,0.3
		c-0.1,0.1-0.3,0.1-0.4,0.1c-0.4,0.1-0.8,0.2-1.2,0.4c-0.5,0.2-0.5,0.7,0,0.9c0.2,0.1,0.5,0.2,0.7,0.2c0.2,0.1,0.3,0.1,0.3,0.4
		c0,0.2-0.1,0.3-0.1,0.5c-0.2,0.5-0.3,1.1-0.2,1.6c0,0.2,0,0.4,0.1,0.5c0.1,0.5,0.5,0.7,1,0.4c0.4-0.3,0.6-0.7,0.8-1.1
		c0.2-0.8,0.4-1.5,0.6-2.3c0-0.2,0.1-0.2,0.3-0.3c0.4-0.1,0.8-0.3,1.2-0.4c0.2-0.1,0.4-0.1,0.7-0.2c0,0.3-0.1,0.5-0.1,0.7
		c-0.1,0.4-0.1,0.9,0,1.3c0.2,0.4,0.5,0.6,1,0.4c0.3-0.2,0.5-0.5,0.6-0.8c0.1-0.5,0.3-1.1,0.4-1.6c0.1-0.6,0.3-1.1,0.9-1.4
		c0.1-0.1,0.2-0.2,0.3-0.2c0-0.1,0.1-0.1,0.1-0.2c0-0.1,0-0.2,0-0.2c0,0-0.1-0.1-0.2,0c-0.2,0-0.3,0.1-0.6,0.2c0-0.2,0-0.4,0.1-0.5
		c0.1-0.7,0.3-1.4,0.4-2.1c0.1-0.3-0.2-0.5-0.4-0.3c-0.2,0.1-0.4,0.2-0.5,0.4c-0.2,0.2-0.3,0.4-0.4,0.6c-0.3,0.7-0.6,1.4-0.9,2
		c-0.1,0.3-0.3,0.4-0.6,0.5c-0.3,0.1-0.5,0.1-0.8,0.2C44.8,31.3,44.6,31.3,44.3,31.3z M53.9,21.5C53.9,21.5,53.9,21.5,53.9,21.5
		c-0.1,0.2-0.2,0.3-0.3,0.4c-0.8,0.7-1.5,1.4-2.3,2.1c-0.2,0.2-0.3,0.5-0.4,0.7c-0.1,0.3,0,0.5,0.4,0.5c0.2,0,0.5,0,0.7,0
		c0.7,0,1.5,0,2.2-0.1c0.7,0,1.3-0.1,1.9-0.5c0.4-0.2,0.8-0.4,1.3-0.4c0.7,0,1.4-0.4,1.9-0.8c0.2-0.2,0.5-0.2,0.7-0.1
		c0.7,0.3,1.4,0.1,2-0.3c0.2-0.1,0.2-0.3,0-0.4c-0.2-0.1-0.4-0.2-0.6-0.3c-0.3-0.1-0.5-0.3-0.4-0.7c0.1-0.2,0.1-0.4,0.2-0.6
		c0.1-0.3,0.1-0.6,0.1-0.9c0-0.2-0.2-0.3-0.4-0.3c-0.2,0-0.3,0-0.5,0c-1.2,0-2.3,0.4-3.2,1.3c-0.7,0.6-1.3,1.3-1.1,2.3
		c0,0.2,0,0.3-0.2,0.3c-0.6,0-1.2,0-1.7,0c-0.2,0-0.4,0-0.6-0.1c0.1-0.1,0.2-0.3,0.3-0.4c0.5-0.5,1-1.1,1.5-1.6
		c0.2-0.2,0.4-0.5,0.6-0.7c0.3-0.5,0.1-1-0.5-1.1c-0.4,0-0.9,0-1.3,0c-0.7,0.1-1.4,0.2-2.2,0.2c-0.2,0-0.3,0-0.5,0.1
		c-0.3,0.1-0.5,0.5-0.2,0.8c0.2,0.2,0.4,0.3,0.6,0.4c0.3,0.1,0.6,0,0.9,0C53.2,21.6,53.6,21.5,53.9,21.5z M38.8,21.9
		c-0.1,0.2-0.2,0.3-0.2,0.4c-1.1,1.8-1.9,3.7-2.4,5.7c-0.2,0.6-0.3,1.3-0.2,1.9c0,0.3,0.2,0.5,0.4,0.5c0.2,0.1,0.4-0.1,0.5-0.2
		c0.1-0.1,0.2-0.3,0.3-0.5c0.4-0.9,0.8-1.8,1.2-2.7c0.2-0.5,0.4-1,0.6-1.5c0.1,0,0.1,0,0.2,0.1c0.3,0.2,0.6,0.2,0.9,0.1
		c0.7-0.2,1.4-0.4,2.1-0.9c0.8-0.6,1.4-1.3,1.5-2.3c0.1-0.8-0.1-1.4-0.8-1.9c-0.5-0.4-1-0.6-1.7-0.7c-0.9-0.1-1.7,0.1-2.5,0.5
		c-0.3,0.2-0.6,0.4-0.7,0.7C37.8,21.7,38,22,38.4,22C38.5,22,38.6,21.9,38.8,21.9z M48.9,22.7c0,0,0,0.1-0.1,0.1
		c-0.2,0.2-0.4,0.4-0.6,0.6c-0.8,0.7-1.5,1.5-2.3,2.3c-0.2,0.2-0.3,0.4-0.4,0.7c-0.2,0.5,0,1,0.6,0.8c0.5-0.1,1-0.2,1.5-0.3
		c0.9-0.1,1.7-0.1,2.6-0.2c0.8-0.1,1.6-0.1,2.5-0.2c0.6-0.1,1.2-0.3,1.7-0.7c0.1-0.1,0.3-0.2,0.2-0.4c-0.1-0.2-0.3-0.1-0.5-0.1
		c-0.4,0.1-0.7,0.1-1.1,0.1c-1.5,0-3.1,0-4.6,0c0,0-0.1,0-0.1,0c0.1-0.1,0.1-0.1,0.2-0.2c0.5-0.5,1.1-1.1,1.5-1.6
		c0.4-0.4,0.7-0.9,0.9-1.3c0.3-0.5-0.2-1-0.6-0.9c-0.2,0-0.3,0-0.5,0.1c-0.8,0.1-1.6,0.1-2.3,0.2c-0.3,0-0.6,0.1-0.8,0.2
		c-0.3,0.1-0.4,0.4-0.2,0.6c0.1,0.1,0.3,0.3,0.4,0.3c0.2,0.1,0.3,0.1,0.5,0.1C48,22.8,48.5,22.8,48.9,22.7z M57.9,27.4
		C57.9,27.4,57.9,27.3,57.9,27.4c0-0.2,0-0.3,0-0.4c0.1-0.2,0.2-0.5,0.2-0.7c0-0.2,0-0.4-0.2-0.5c-0.2-0.1-0.3,0-0.5,0.1
		c-0.1,0.1-0.3,0.2-0.3,0.3c-0.3,0.5-0.6,0.9-0.9,1.4c-0.1,0.1-0.2,0.2-0.3,0.2c-0.4,0-0.7,0-1.1,0c-0.2,0-0.4,0.1-0.5,0.4
		c-0.1,0.2,0,0.4,0.1,0.5c0.2,0.1,0.4,0.3,0.6,0.3c0.4,0.1,0.4,0.1,0.3,0.5c-0.2,0.9-0.4,1.8-0.5,2.8c0,0.4,0,0.8,0.1,1.1
		c0.1,0.3,0.3,0.3,0.5,0c0.1-0.2,0.2-0.4,0.3-0.6c0.4-1.2,0.9-2.4,1.3-3.5c0.1-0.3,0.3-0.6,0.7-0.7c0.5-0.2,1-0.4,1.5-0.6
		c0.5-0.2,1.1-0.5,1.6-0.8c0.1,0,0.1-0.2,0.2-0.3c-0.1,0-0.2-0.1-0.3-0.1c-0.5,0.1-0.9,0.1-1.4,0.2C58.8,27.2,58.4,27.3,57.9,27.4z
		 M52.2,31.4C52.3,31.4,52.3,31.4,52.2,31.4c0.2,0.2,0.2,0.3,0.3,0.5c0.2,0.2,0.4,0.5,0.6,0.7c0.1,0.1,0.2,0.1,0.4,0.2
		c0.2,0.1,0.3,0,0.3-0.2c0-0.1,0-0.2,0-0.2c0-0.4,0-0.9,0-1.3c0-0.7,0.1-1.3,0.2-2c0-0.2,0-0.4-0.2-0.5c-0.2-0.1-0.4,0-0.5,0.1
		c-0.1,0.1-0.2,0.3-0.3,0.4c-0.5,0.8-1.2,1.5-2,2.1c-0.1,0.1-0.2,0.1-0.3,0.2c0-0.1,0-0.2,0.1-0.3c0.1-0.4,0.1-0.9,0-1.3
		c-0.1-0.4-0.4-0.6-0.9-0.6c-0.1,0-0.3,0-0.4,0.1c-0.1,0.1-0.3,0.1-0.3,0.3c0,0.1,0.1,0.2,0.2,0.3c0.2,0.1,0.2,0.2,0.1,0.4
		c-0.3,0.6-0.5,1.3-0.4,2c0,0.3,0.2,0.6,0.4,0.7c0.2,0.1,0.5,0.1,0.7,0.1c0.6-0.1,1.1-0.5,1.5-0.9C51.9,31.8,52.1,31.6,52.2,31.4z
		 M43.2,25.9c0,0.1,0,0.3,0,0.4c0,0.5,0.3,0.8,0.7,0.9c0.2,0.1,0.5-0.1,0.5-0.3c0.2-0.5,0.3-0.9,0.5-1.3c0.3-0.7,0.6-1.4,0.9-2.2
		c0.1-0.4,0.2-0.8,0.1-1.3c0-0.1-0.2-0.3-0.3-0.3c-0.1,0-0.3,0.1-0.4,0.2c0,0-0.1,0.1-0.1,0.1c-0.5,0.8-1,1.6-1.6,2.4
		C43.3,24.9,43.2,25.4,43.2,25.9z M45,20.6c0.1,0.2,0.2,0.3,0.3,0.5c0.3,0.3,0.5,0.3,0.9,0c0.7-0.6,1.2-1.4,1.6-2.2c0,0,0-0.1,0-0.1
		c0-0.1,0-0.3,0-0.4c-0.1-0.1-0.3-0.1-0.4,0c-0.8,0.3-1.6,0.8-2.1,1.6C45.2,20.1,45.2,20.3,45,20.6z"/>
	<path class="st0" d="M26.5,28.2c0-0.5,0.1-1,0.5-1.4c0.2-0.1,0.3-0.2,0.5-0.2c0.8,0.1,1.2,0.3,1.3,1.3c0.1,0.9,0.2,1.9,0.3,2.8
		c0,0.5-0.3,0.8-0.8,0.7c-0.8-0.2-1.3-0.7-1.5-1.4C26.6,29.5,26.5,28.9,26.5,28.2z"/>
	<path class="st0" d="M68,40.5c0.1-0.2,0.2-0.5,0.2-0.7c0-0.1,0.1-0.1,0.1-0.1c0,0.1,0.1,0.1,0.1,0.2c0,0.3,0,0.5,0,0.8
		c0,0,0,0-0.1,0c0-0.2,0-0.5,0-0.7c0,0,0,0-0.1,0c-0.1,0.2-0.2,0.5-0.3,0.7c0,0,0,0-0.1,0c-0.1-0.3-0.2-0.5-0.3-0.8c0,0,0,0-0.1,0
		c0,0.2,0,0.5,0,0.7c0,0,0,0-0.1,0c0-0.3,0-0.6,0-0.8c0,0,0.1-0.1,0.1-0.1c0,0,0.1,0.1,0.1,0.1C67.8,40.1,67.9,40.3,68,40.5
		C68,40.5,68,40.5,68,40.5z"/>
	<path class="st0" d="M66.6,39.8c0.2,0,0.5,0,0.7,0c0,0,0,0,0,0c-0.3,0-0.3,0.1-0.3,0.4c0,0.2,0,0.3,0,0.5c0,0-0.1,0-0.1,0
		c0-0.1,0-0.3,0-0.4C66.9,39.9,66.9,39.9,66.6,39.8z"/>
	<path class="st0" d="M57.9,22.7c0-0.5,1.2-1.4,1.8-1.4c-0.1,0.5-0.3,0.9-0.9,1.1c-0.2,0.1-0.4,0.2-0.6,0.3
		C58.1,22.7,58,22.7,57.9,22.7z"/>
	<path class="st0" d="M39.1,25.4c0-0.1,0.1-0.3,0.1-0.4c0.3-0.9,0.5-1.8,0.8-2.7c0-0.2,0.1-0.3,0.1-0.5c0-0.1,0.1-0.2,0.2-0.2
		c0.4,0.1,0.8,0.1,1.1,0.3c0.6,0.3,0.8,1,0.4,1.6c-0.3,0.6-0.8,0.9-1.4,1.3c-0.4,0.2-0.7,0.4-1.1,0.5C39.2,25.4,39.1,25.4,39.1,25.4
		z"/>
</g>
</svg>
